<svg id="Livello_1" data-name="Livello 1" xmlns="http://www.w3.org/2000/svg" viewBox="0 0 128 128"><defs><style>.cls-1{fill:#f78e2c;}.cls-2{fill:#fdbc40;}.cls-3{fill:#fffaec;}.cls-4{fill:#7f3100;}</style></defs><title>beer</title><g id="_Gruppo_" data-name="&lt;Gruppo&gt;"><path id="_Tracciato_" data-name="&lt;Tracciato&gt;" class="cls-1" d="M94.06,24.84a8.92,8.92,0,0,0-2.38-7.59C87.84,13.27,79.25,8,60.62,8S33.4,13.27,29.56,17.24a8.92,8.92,0,0,0-2.39,7.59c7.84,49.24-3.62,77.79-3.62,77.79,0,17,37.06,16.92,37.06,16.92s37.06,0,37.06-16.92C97.68,102.62,86.22,74.07,94.06,24.84Z"/><path id="_Tracciato_2" data-name="&lt;Tracciato&gt;" class="cls-2" d="M94.06,24.84c0,.06,0,.14,0,.2-.34,1.17-4.45,12.29-33.41,12.29S27.55,26.21,27.21,25l0-.2a8.94,8.94,0,0,1,2.39-7.59C33.4,13.27,42,8,60.62,8s27.22,5.24,31.06,9.21A8.9,8.9,0,0,1,94.06,24.84Z"/><path id="_Tracciato_3" data-name="&lt;Tracciato&gt;" class="cls-3" d="M91.29,22l0,.17c-.32,1-4.12,10.25-30.89,10.25S29.79,23.19,29.47,22.21l0-.17a7,7,0,0,1,2.21-6.33C35.2,12.4,43.14,8,60.36,8s25.17,4.37,28.72,7.68A7,7,0,0,1,91.29,22Z"/><path id="_Tracciato_4" data-name="&lt;Tracciato&gt;" class="cls-2" d="M85.8,40.45S80.4,45,55.88,43.74C40.66,43,33,38.49,33,38.49c5.61,39.87-2.74,54.16-4.43,59.77a6.55,6.55,0,0,0-.27,2.81c2,14.06,30.19,14,30.19,14s28.17,0,30.19-14a6.57,6.57,0,0,0-.27-2.81C86.68,92.65,80.18,80.32,85.8,40.45Z"/><g id="_Gruppo_2" data-name="&lt;Gruppo&gt;"><path id="_Tracciato_5" data-name="&lt;Tracciato&gt;" class="cls-3" d="M40.38,93.76a184.52,184.52,0,0,0,3.14-37L38.15,55.5c.22,20.26-2.18,34-3.52,40.08a15.29,15.29,0,0,0,.77,9.36,6.76,6.76,0,0,0,.77,1.4,31.72,31.72,0,0,0,9.22,3.47,9.39,9.39,0,0,1-2.49-2.66A17.69,17.69,0,0,1,40.38,93.76Z"/><path id="_Tracciato_6" data-name="&lt;Tracciato&gt;" class="cls-3" d="M37.72,47.25q.15,2,.26,3.92l5.43,1.28c-.09-1.7-.08-1.67-.21-3.44Z"/><path id="_Tracciato_7" data-name="&lt;Tracciato&gt;" class="cls-3" d="M83.83,82a106.13,106.13,0,0,0,3,17.51c0,12.72-18.3,14.2-22.66,14.37l.91,0s23.6,0,23.6-14.4a181.65,181.65,0,0,1-5-25.21Z"/></g><path id="_Tracciato_composto_" data-name="&lt;Tracciato composto&gt;" class="cls-4" d="M60.64,121.75h0c-1.32,0-25.59-.14-35.21-9.74a12.91,12.91,0,0,1-4-9.39,2.2,2.2,0,0,1,.16-.82c.11-.28,11.12-28.66,3.49-76.62a11.19,11.19,0,0,1,3-9.48c4.35-4.51,13.55-9.88,32.65-9.88s28.29,5.37,32.65,9.88a11.19,11.19,0,0,1,3,9.48h0c-7.63,48,3.37,76.34,3.49,76.62a2.22,2.22,0,0,1,.16.82,12.9,12.9,0,0,1-4,9.39C86.24,121.62,62,121.75,60.64,121.75ZM25.78,103a8.57,8.57,0,0,0,2.72,5.87c8.38,8.37,31.78,8.45,32.11,8.45h0a92.9,92.9,0,0,0,18.1-2.05c7.5-1.72,16.42-5.23,16.74-12.27-1.46-3.92-11-31.93-3.58-78.52a6.74,6.74,0,0,0-1.79-5.71c-3.08-3.19-11-8.53-29.47-8.53s-26.39,5.35-29.47,8.53a6.74,6.74,0,0,0-1.79,5.71C36.78,71.09,27.24,99.1,25.78,103ZM94.06,24.84h0Z"/><path id="_Tracciato_8" data-name="&lt;Tracciato&gt;" class="cls-4" d="M60.62,39.53c-13.14,0-23-2.22-29.44-6.58-5.1-3.49-6.06-7.12-6.16-7.53a2.21,2.21,0,0,1,4.3-1c.08.28,3.52,10.72,31.3,10.72,28,0,31.27-10.62,31.3-10.73a2.23,2.23,0,0,1,2.68-1.58,2.19,2.19,0,0,1,1.62,2.61C96.08,26,92.6,39.53,60.62,39.53Z"/><path id="_Tracciato_9" data-name="&lt;Tracciato&gt;" class="cls-3" d="M73.54,63.79h0a3.67,3.67,0,0,0,3.67-3.67V27.69H69.87V60.12A3.67,3.67,0,0,0,73.54,63.79Z"/><path id="_Tracciato_10" data-name="&lt;Tracciato&gt;" class="cls-3" d="M66.2,55.41h0a3.67,3.67,0,0,0,3.67-3.67v-24H62.52v24A3.67,3.67,0,0,0,66.2,55.41Z"/><path id="_Tracciato_11" data-name="&lt;Tracciato&gt;" class="cls-3" d="M55.41,49.3h0a3.67,3.67,0,0,0,3.67-3.67V27.69H51.74V45.62A3.67,3.67,0,0,0,55.41,49.3Z"/><circle id="_Ellisse_" data-name="&lt;Ellisse&gt;" class="cls-3" cx="73.54" cy="71.47" r="3.67"/><circle id="_Ellisse_2" data-name="&lt;Ellisse&gt;" class="cls-2" cx="41.25" cy="18.41" r="1.84"/><circle id="_Ellisse_3" data-name="&lt;Ellisse&gt;" class="cls-2" cx="36.97" cy="21.69" r="1.19"/><circle id="_Ellisse_4" data-name="&lt;Ellisse&gt;" class="cls-2" cx="41.25" cy="22.47" r="0.69"/><circle id="_Ellisse_5" data-name="&lt;Ellisse&gt;" class="cls-2" cx="37.26" cy="18.7" r="0.69"/><circle id="_Ellisse_6" data-name="&lt;Ellisse&gt;" class="cls-2" cx="43.51" cy="15.39" r="0.32"/><circle id="_Ellisse_7" data-name="&lt;Ellisse&gt;" class="cls-2" cx="52.86" cy="24.63" r="1.84" transform="translate(-4.47 35.32) rotate(-35.54)"/><circle id="_Ellisse_8" data-name="&lt;Ellisse&gt;" class="cls-2" cx="47.7" cy="23.05" r="1.19" transform="translate(-4.52 32.02) rotate(-35.54)"/><circle id="_Ellisse_9" data-name="&lt;Ellisse&gt;" class="cls-2" cx="49.56" cy="26.99" r="0.69" transform="translate(-6.45 33.86) rotate(-35.57)"/><circle id="_Ellisse_10" data-name="&lt;Ellisse&gt;" class="cls-2" cx="86.66" cy="20.58" r="1.19" transform="translate(12.75 70.29) rotate(-47.28)"/><circle id="_Ellisse_11" data-name="&lt;Ellisse&gt;" class="cls-2" cx="85.66" cy="24.34" r="0.69" transform="translate(9.63 70.7) rotate(-47.23)"/><circle id="_Ellisse_12" data-name="&lt;Ellisse&gt;" class="cls-2" cx="80.74" cy="25.4" r="1.19" transform="translate(45.46 102.33) rotate(-82.83)"/><circle id="_Ellisse_13" data-name="&lt;Ellisse&gt;" class="cls-2" cx="82.33" cy="22.53" r="0.4" transform="translate(49.75 101.42) rotate(-82.86)"/><circle id="_Ellisse_14" data-name="&lt;Ellisse&gt;" class="cls-2" cx="50.31" cy="21.55" r="0.69" transform="translate(-3.15 33.28) rotate(-35.57)"/><circle id="_Ellisse_15" data-name="&lt;Ellisse&gt;" class="cls-2" cx="56.63" cy="24.71" r="0.32" transform="translate(-3.79 37.62) rotate(-35.63)"/><path id="_Tracciato_12" data-name="&lt;Tracciato&gt;" class="cls-2" d="M92.9,31.13s12.34-6.27,18.38,4.92,3.15,44.95-6,44.95c-4.72,0-5.48-5.17-13.17-5.17V68.17c4.84,0,5.32,3.26,8.29,3.26,5.73,0,7.55-21.25,3.75-28.29S92.63,40,92.63,40Z"/><g id="_Gruppo_3" data-name="&lt;Gruppo&gt;"><path id="_Tracciato_13" data-name="&lt;Tracciato&gt;" class="cls-1" d="M103.78,42.44a16.86,16.86,0,0,0-1.55-5.19c-2.53-4.69-6.81-4.51-9.4-3.86L92.63,40S99.86,36.37,103.78,42.44Z"/><path id="_Tracciato_14" data-name="&lt;Tracciato&gt;" class="cls-1" d="M111.37,36.22c3,14.14-.21,38.88-8,38.88-4.28,0-5.32-4.24-11.2-5v5.75c7.69,0,8.45,5.17,13.17,5.17C114.39,81,117.29,47.59,111.37,36.22Z"/></g><path id="_Tracciato_composto_2" data-name="&lt;Tracciato composto&gt;" class="cls-4" d="M105.33,83.2c-2.82,0-4.61-1.37-6.19-2.57a10,10,0,0,0-7-2.6A2.21,2.21,0,0,1,90,75.82V68.17A2.21,2.21,0,0,1,92.16,66a9.76,9.76,0,0,1,6.57,2.38c.87.67,1.2.88,1.71.88.07,0,.47-.19,1-1.09,3-5,3.44-19.07.81-23.95-.29-.53-2.95-5.06-8.63-2.18a2.21,2.21,0,0,1-3.21-2l.27-8.91a2.21,2.21,0,0,1,1.21-1.9c4.93-2.5,15.74-4.51,21.33,5.84,5.15,9.53,4.36,34-1.4,43.69C109.6,82.42,107.07,83.2,105.33,83.2Zm-11-9.45a14.54,14.54,0,0,1,7.45,3.37c1.44,1.09,2.24,1.67,3.51,1.67s2.18-1.48,2.7-2.36c5-8.34,5.73-31.13,1.3-39.33-4-7.49-11.34-5.64-14.27-4.51L94.93,37c3.64-.72,8.39-.09,11.21,5.13,3.41,6.31,2.91,21.92-.9,28.31-1.6,2.68-3.49,3.24-4.79,3.24a6.87,6.87,0,0,1-4.39-1.78,7.85,7.85,0,0,0-1.69-1.08Z"/></g></svg>